<svg viewBox="0 0 50 50" xmlns="http://www.w3.org/2000/svg"><g fill="#ef7d17"><path d="m44.25 38-4-28.74a.6.6 0 0 0 -.9-.43l-2.07 1.24-19.09 11.38-8.19 1.14a.61.61 0 0 0 -.51.68l.2 1.39-1.54.21a.61.61 0 0 0 -.51.67l.14 1-1.53.21a.61.61 0 0 0 -.51.68l.37 2.57a.59.59 0 0 0 .67.51l1.54-.21.13 1a.6.6 0 0 0 .68.51l1.53-.21.19 1.4a.61.61 0 0 0 .68.51l.83-.12 1 7.37a.6.6 0 0 0 .67.51l3.48-.49a.59.59 0 0 0 .51-.52l.9-7.79.76-.1 12.42 3.26 9 2.41 2.33.62a.6.6 0 0 0 .82-.66zm-37-8.78-.25-1.37 1-.13.19 1.38zm2.35 1.29-.14-1-.4-2.51-.14-1 .94-.13.64 4.55zm8.32-7.82.11.8-3.56.51-.11-.8zm-.3 11.22-1 .15a.6.6 0 1 0 .17 1.18l.73-.1-.11.88-1.15.16a.6.6 0 0 0 .17 1.19l.84-.12-.28 2.37-2.5.38-1-6.78 4.19-.58zm.75-2.6-5.54.77-.83.12-.2-1.39-.8-5.73-.19-1.39 2.4-.33.2 1.39a.6.6 0 0 0 .67.51l4.12-.58.91 6.54zm17.83 4.18a.05.05 0 0 0 0 0l-15.92-4.24c0-.3-1.22-8.77-1.24-8.91l18.05-10.77c.76 5.5 1.39 10 2.16 15.44.25 1.9 1.12 8.17 1.34 9.65zm5.65 1.51c-.2-1.31-.82-5.78-1.2-8.53 0 0 0 0 0-.06-.07-.53-.14-1-.22-1.55v-.23c-.78-5.47-1.42-10-2.19-15.7l1-.58 3.76 27z"/><path d="m35.37 13.72-6.27 3.72a.54.54 0 0 0 -.19.75.55.55 0 0 0 .75.19l6.27-3.72a.55.55 0 1 0 -.56-.94z"/><path d="m27.11 18.66-.77.45a.54.54 0 0 0 -.19.75.55.55 0 0 0 .75.2l.77-.46a.55.55 0 1 0 -.56-.94z"/></g></svg>