<svg viewBox="0 0 50 50" xmlns="http://www.w3.org/2000/svg"><g fill="#45de3e"><path d="m33.39 12.68a11.89 11.89 0 0 0 -8.39-3.44h-.17a12 12 0 0 0 -8.41 20.26 9.08 9.08 0 0 1 2.58 6.34v1.63a5.16 5.16 0 0 0 3.44 4.86h.06v.39a1.92 1.92 0 0 0 1.92 1.92h1.08a1.92 1.92 0 0 0 1.92-1.92v-.39h.06a5.16 5.16 0 0 0 3.52-4.86v-1.63a9.11 9.11 0 0 1 2.61-6.34 11.93 11.93 0 0 0 -.18-16.82zm-7.16 30.06a.69.69 0 0 1 -.69.69h-1.08a.69.69 0 0 1 -.69-.69v-.13h2.46zm3.16-3.67a3.94 3.94 0 0 1 -3.59 2.32h-1.6a3.94 3.94 0 0 1 -3.59-2.32l-.06-.14h8.9zm.34-1.6v.23h-9.45v-1.24h9.46zm-3.52-17.21h.07l.56.84h-.12a6.55 6.55 0 0 1 -3.44 0h-.12l.56-.84h.07a3.26 3.26 0 0 0 2.42 0zm-1.79-1.08.58-.86.58.86h-.14a2 2 0 0 1 -.88 0zm2.64 3.11h.12v13h-1.56v-12.74h.08a8.11 8.11 0 0 0 1.36-.26zm-2.76.25h.08v12.68h-1.56v-13h.12a7.93 7.93 0 0 0 1.36.32zm8.39 6.11a10.36 10.36 0 0 0 -2.94 6.49v.08h-1.34v-13.84a.6.6 0 0 0 -.11-.38l-2.79-4.17a.62.62 0 0 0 -1 0l-2.81 4.17a.6.6 0 0 0 -.11.34v13.88h-1.34v-.08a10.46 10.46 0 0 0 -2.94-6.5 10.73 10.73 0 0 1 7.54-18.17h.15a10.72 10.72 0 0 1 7.69 18.18z"/><path d="m27.63 12h-.17a.54.54 0 0 0 -.3.08.61.61 0 0 0 -.29.36.59.59 0 0 0 .05.47.61.61 0 0 0 .37.3 8.38 8.38 0 0 1 6.06 8 .61.61 0 0 0 .61.62.62.62 0 0 0 .62-.62 9.63 9.63 0 0 0 -6.95-9.21z"/><path d="m25.53 11.62c-.22 0-.45 0-.67 0a.61.61 0 0 0 -.61.62.62.62 0 0 0 .62.61h.62a.62.62 0 0 0 0-1.23z"/><path d="m40.38 20.72h-1.24a.61.61 0 0 0 -.61.62.61.61 0 0 0 .61.61h1.24a.61.61 0 0 0 .62-.61.62.62 0 0 0 -.62-.62z"/><path d="m11.47 21.34a.61.61 0 0 0 -.61-.62h-1.24a.62.62 0 0 0 -.62.62.61.61 0 0 0 .62.61h1.24a.61.61 0 0 0 .61-.61z"/><path d="m37.55 14.8 1.08-.62a.58.58 0 0 0 .28-.37.56.56 0 0 0 -.06-.47.64.64 0 0 0 -.37-.29h-.16a.68.68 0 0 0 -.31.08l-1.07.62a.63.63 0 0 0 -.23.85.63.63 0 0 0 .84.2z"/><path d="m12.75 27.79a.61.61 0 0 0 -.31.09l-1.07.61a.69.69 0 0 0 -.29.38.62.62 0 0 0 .6.77.55.55 0 0 0 .31-.08l1.07-.62a.62.62 0 0 0 .23-.84.63.63 0 0 0 -.54-.31z"/><path d="m31.76 9.62a.59.59 0 0 0 .31.09.61.61 0 0 0 .53-.31l.62-1.07a.63.63 0 0 0 -.22-.85.68.68 0 0 0 -.31-.08h-.16a.64.64 0 0 0 -.37.29l-.62 1.07a.62.62 0 0 0 .22.86z"/><path d="m25 7.81a.61.61 0 0 0 .62-.61v-1.2a.62.62 0 0 0 -1.24 0v1.2a.61.61 0 0 0 .62.61z"/><path d="m17.4 9.4a.61.61 0 0 0 .53.31.63.63 0 0 0 .59-.46.56.56 0 0 0 -.06-.47l-.62-1.07a.64.64 0 0 0 -.37-.29h-.16a.68.68 0 0 0 -.31.08.63.63 0 0 0 -.22.85z"/><path d="m11.37 14.18 1.08.62a.63.63 0 0 0 .84-.22.63.63 0 0 0 -.23-.85l-1.06-.62a.68.68 0 0 0 -.31-.08h-.16a.64.64 0 0 0 -.37.29.56.56 0 0 0 -.06.47.58.58 0 0 0 .27.39z"/><path d="m38.63 28.49-1.07-.61a.59.59 0 0 0 -.31-.09h-.16a.69.69 0 0 0 -.38.29.62.62 0 0 0 .23.84l1.07.62a.55.55 0 0 0 .31.08.62.62 0 0 0 .6-.77.69.69 0 0 0 -.29-.36z"/></g></svg>