<svg viewBox="0 0 50 50" xmlns="http://www.w3.org/2000/svg"><g fill="#4ac7e9"><path d="m40.22 9.55h-30.44a.49.49 0 0 0 -.5.49v29.96a.49.49 0 0 0 .5.49h30.44a.49.49 0 0 0 .5-.49v-30a.49.49 0 0 0 -.5-.45zm-.49 29.92h-29.46v-22.64h29.46zm0-23.62h-29.46v-5.32h29.46z"/><path d="m29.72 12.63h5.78a.49.49 0 1 0 0-1h-5.78a.49.49 0 0 0 0 1z"/><path d="m37.07 12.63h1a.49.49 0 1 0 0-1h-1a.49.49 0 0 0 0 1z"/><path d="m25.52 15.26a2.07 2.07 0 1 0 -2.06-2.07 2.07 2.07 0 0 0 2.06 2.07zm0-3.15a1.08 1.08 0 1 1 -1.08 1.08 1.08 1.08 0 0 1 1.08-1.08z"/><path d="m19.75 15.26a2.07 2.07 0 1 0 -2.07-2.07 2.07 2.07 0 0 0 2.07 2.07zm0-3.15a1.08 1.08 0 1 1 -1.08 1.08 1.08 1.08 0 0 1 1.08-1.08z"/><path d="m14 15.26a2.07 2.07 0 1 0 -2.07-2.07 2.07 2.07 0 0 0 2.07 2.07zm0-3.15a1.08 1.08 0 1 1 -1.09 1.08 1.08 1.08 0 0 1 1.09-1.08z"/><path d="m17.19 33.78a1.48 1.48 0 0 0 1 .37 1.5 1.5 0 0 0 1.1-.49 1.47 1.47 0 0 0 -.12-2.08l-3.79-3.4 3.82-3.62a1.47 1.47 0 0 0 .06-2.08 1.46 1.46 0 0 0 -2.09-.06l-5 4.72a1.51 1.51 0 0 0 -.46 1.1 1.53 1.53 0 0 0 .49 1.08zm-4.34-5.92 5-4.73a.51.51 0 0 1 .34-.13.49.49 0 0 1 .34.15.52.52 0 0 1 .14.35.5.5 0 0 1 -.16.35l-4.21 4a.48.48 0 0 0 -.15.36.48.48 0 0 0 .16.36l4.19 3.75a.49.49 0 0 1 0 .7.48.48 0 0 1 -.36.16.44.44 0 0 1 -.33-.13l-5-4.46a.48.48 0 0 1 -.16-.36.46.46 0 0 1 .2-.37z"/><path d="m34.63 28.18-3.79 3.4a1.47 1.47 0 0 0 -.12 2.08 1.5 1.5 0 0 0 1.1.49 1.48 1.48 0 0 0 1-.37l5-4.46a1.53 1.53 0 0 0 .49-1.08 1.51 1.51 0 0 0 -.46-1.1l-5-4.72a1.47 1.47 0 1 0 -2 2.14zm-3.16-5a.5.5 0 0 1 .69 0l5 4.73a.46.46 0 0 1 .15.36.48.48 0 0 1 -.16.36l-5 4.46a.44.44 0 0 1 -.33.13.48.48 0 0 1 -.36-.16.49.49 0 0 1 0-.7l4.19-3.75a.48.48 0 0 0 .16-.36.48.48 0 0 0 -.15-.36l-4.21-4a.49.49 0 0 1 .02-.74z"/><path d="m21.64 34a1.45 1.45 0 0 0 .73.19 1.47 1.47 0 0 0 1.28-.74l5-8.66a1.46 1.46 0 0 0 .15-1.12 1.44 1.44 0 0 0 -.69-.89 1.47 1.47 0 0 0 -2 .54l-5 8.66a1.47 1.47 0 0 0 .53 2.02zm.36-1.57 5-8.66a.48.48 0 0 1 .42-.25.45.45 0 0 1 .25.07.5.5 0 0 1 .23.3.53.53 0 0 1 -.05.37l-5 8.66a.48.48 0 0 1 -.43.25.44.44 0 0 1 -.24-.07.48.48 0 0 1 -.18-.67z"/></g></svg>