<svg viewBox="0 0 50 50" xmlns="http://www.w3.org/2000/svg"><g fill="#883ea8"><path d="m40.34 15.88a.43.43 0 0 0 0-.12.14.14 0 0 0 0-.06.2.2 0 0 0 0-.08l-.06-.07h-.05l-15.55-7.55a.54.54 0 0 0 -.51 0l-14.17 7.41s0 0 0 .05a.1.1 0 0 0 -.05 0 .2.2 0 0 0 -.06.07v.1a.77.77 0 0 0 0 .15v18.31a.57.57 0 0 0 .31.51l14.55 7.4a.49.49 0 0 0 .23.06.46.46 0 0 0 .23-.06l14.79-7.4a.57.57 0 0 0 .31-.51v-18.21zm-15.91 24.68-13.64-6.82v-16.91l13.64 6.82zm.57-17.9-13.52-6.76 13-6.75 14.05 6.77zm14.21 11.08-4 2a.56.56 0 0 0 -.56-.51.57.57 0 0 0 -.57.57.56.56 0 0 0 .18.41l-5.86 2.94a.57.57 0 1 0 -.95.47l-1.88.94v-16.91h.06a.61.61 0 0 0 -.06.24.56.56 0 0 0 .57.57.56.56 0 0 0 .09-1.12l1.34-.66a.6.6 0 0 0 .27.07.56.56 0 0 0 .56-.49l4.05-2a.48.48 0 0 0 -.06.24.56.56 0 0 0 .61.5.56.56 0 0 0 .09-1.12l1.34-.66a.61.61 0 0 0 .27.08.55.55 0 0 0 .55-.5l4-2z"/><path d="m36.37 21a.56.56 0 0 0 .56-.57.57.57 0 1 0 -.56.57z"/><path d="m38.07 19.32a.57.57 0 1 0 -.57-.57.58.58 0 0 0 .57.57z"/><path d="m29.55 23.29a.57.57 0 0 0 -.57.57.56.56 0 0 0 .57.57.57.57 0 0 0 .57-.57.58.58 0 0 0 -.57-.57z"/><path d="m26.14 27.84a.57.57 0 0 0 .57-.57.58.58 0 0 0 -.57-.57.57.57 0 0 0 -.57.57.56.56 0 0 0 .57.57z"/><path d="m29.55 26.7a.57.57 0 0 0 -.57.57.56.56 0 0 0 .57.57.57.57 0 0 0 .57-.57.58.58 0 0 0 -.57-.57z"/><path d="m36.37 27.84a.56.56 0 0 0 .56-.57.57.57 0 1 0 -.56.57z"/><path d="m27.84 25a.57.57 0 0 0 -.57.57.58.58 0 0 0 .57.57.57.57 0 0 0 .57-.57.56.56 0 0 0 -.57-.57z"/><path d="m31.25 21.59a.58.58 0 0 0 -.57.57.57.57 0 0 0 .57.56.56.56 0 0 0 .57-.56.57.57 0 0 0 -.57-.57z"/><path d="m33 23.29a.57.57 0 0 0 -.57.57.56.56 0 0 0 .57.57.57.57 0 0 0 .57-.57.58.58 0 0 0 -.57-.57z"/><path d="m36.37 24.43a.56.56 0 0 0 .56-.57.57.57 0 1 0 -.56.57z"/><path d="m34.66 21.59a.58.58 0 0 0 -.57.57.57.57 0 0 0 1.14 0 .58.58 0 0 0 -.57-.57z"/><path d="m31.25 25a.57.57 0 0 0 -.57.57.58.58 0 0 0 .57.57.57.57 0 0 0 .57-.57.56.56 0 0 0 -.57-.57z"/><path d="m33 26.7a.57.57 0 0 0 -.57.57.56.56 0 0 0 .57.57.57.57 0 0 0 .57-.57.58.58 0 0 0 -.57-.57z"/><path d="m34.66 25a.57.57 0 0 0 -.57.57.57.57 0 1 0 1.14 0 .57.57 0 0 0 -.57-.57z"/><path d="m38.07 22.72a.57.57 0 0 0 .57-.56.57.57 0 0 0 -1.14 0 .57.57 0 0 0 .57.56z"/><path d="m38.07 26.14a.58.58 0 0 0 .57-.57.57.57 0 0 0 -1.14 0 .58.58 0 0 0 .57.57z"/><path d="m26.14 31.25a.57.57 0 0 0 .57-.57.58.58 0 0 0 -.57-.57.57.57 0 0 0 -.57.57.56.56 0 0 0 .57.57z"/><path d="m29.55 30.11a.57.57 0 0 0 -.57.57.56.56 0 0 0 .57.57.57.57 0 0 0 .57-.57.58.58 0 0 0 -.57-.57z"/><path d="m27.84 28.41a.57.57 0 0 0 -.57.57.58.58 0 0 0 .57.57.57.57 0 0 0 .57-.57.56.56 0 0 0 -.57-.57z"/><path d="m26.14 34.66a.57.57 0 0 0 .57-.57.58.58 0 0 0 -.57-.57.57.57 0 0 0 -.57.57.56.56 0 0 0 .57.57z"/><path d="m29.55 33.52a.57.57 0 0 0 -.57.57.56.56 0 0 0 .57.57.57.57 0 0 0 .57-.57.58.58 0 0 0 -.57-.57z"/><path d="m36.37 34.66a.56.56 0 0 0 .56-.57.57.57 0 1 0 -.56.57z"/><path d="m27.84 31.82a.57.57 0 0 0 -.57.57.58.58 0 0 0 .57.57.57.57 0 0 0 .57-.57.56.56 0 0 0 -.57-.57z"/><path d="m31.25 28.41a.57.57 0 0 0 -.57.57.58.58 0 0 0 .57.57.57.57 0 0 0 .57-.57.56.56 0 0 0 -.57-.57z"/><path d="m33 30.11a.57.57 0 0 0 -.57.57.56.56 0 0 0 .57.57.57.57 0 0 0 .57-.57.58.58 0 0 0 -.57-.57z"/><path d="m36.37 31.25a.56.56 0 0 0 .56-.57.57.57 0 1 0 -.56.57z"/><path d="m34.66 28.41a.57.57 0 0 0 -.57.57.57.57 0 1 0 1.14 0 .57.57 0 0 0 -.57-.57z"/><path d="m31.25 31.82a.57.57 0 0 0 -.57.57.58.58 0 0 0 .57.57.57.57 0 0 0 .57-.57.56.56 0 0 0 -.57-.57z"/><path d="m33 33.52a.57.57 0 0 0 -.57.57.56.56 0 0 0 .57.57.57.57 0 0 0 .57-.57.58.58 0 0 0 -.57-.57z"/><path d="m34.66 31.82a.57.57 0 0 0 -.57.57.57.57 0 1 0 1.14 0 .57.57 0 0 0 -.57-.57z"/><path d="m38.07 29.55a.58.58 0 0 0 .57-.57.57.57 0 0 0 -1.14 0 .58.58 0 0 0 .57.57z"/><circle cx="38.07" cy="32.39" r=".57"/><path d="m26.14 38.07a.57.57 0 0 0 0-1.14.57.57 0 0 0 0 1.14z"/><path d="m29.55 36.93a.57.57 0 1 0 0 1.14.57.57 0 1 0 0-1.14z"/><path d="m27.84 35.23a.57.57 0 0 0 -.57.57.58.58 0 0 0 .57.57.57.57 0 0 0 .57-.57.56.56 0 0 0 -.57-.57z"/><path d="m31.25 35.23a.57.57 0 0 0 -.57.57.58.58 0 0 0 .57.57.57.57 0 0 0 .57-.57.56.56 0 0 0 -.57-.57z"/></g></svg>