<svg viewBox="0 0 50 50" xmlns="http://www.w3.org/2000/svg"><g fill="#fbae17"><path d="m40.16 20a1.17 1.17 0 0 0 -1.28-1l-4.88.41-21.75 2.12a2 2 0 0 0 .17-1.06 2.16 2.16 0 0 0 -.51-1.2l26.28-5.83a1.2 1.2 0 0 0 .74-.52 1.16 1.16 0 0 0 .15-.89l-.71-3.21a1.19 1.19 0 0 0 -1.37-.89l-22.71 5.07-4.63 1a1.23 1.23 0 0 0 -.74.52 1.16 1.16 0 0 0 -.15.89l.73 3.31a2.12 2.12 0 0 0 .5 4.05l1.66 17.11a2.46 2.46 0 0 0 2.68 2.21l25.29-2.45a2.47 2.47 0 0 0 2.17-2.64zm-1.16 0a.08.08 0 0 1 .09.08l.29 3-4.66.45 2.28-3.31zm-4.51.44 1.11-.1-2.34 3.35-5.14.49 2.34-3.34zm-5.49.56-2.3 3.34-5.14.5 2.34-3.34zm-6.57.63-2.3 3.37-5.14.5 2.34-3.35zm13.82-12.42 1-.21a.08.08 0 0 1 .07 0 .06.06 0 0 1 0 .05l.68 3.22a.35.35 0 0 1 0 .06h-.06l-3.8.84 2-3.84a.44.44 0 0 0 .11-.12zm-6.45 1.43 5.08-1.13-2.13 4-5.05 1.14 2.05-3.85a.75.75 0 0 0 .05-.16zm-6.45 1.43 5.08-1.07-2.13 4-5.05 1.12 2.05-3.86a.33.33 0 0 0 .05-.19zm-6.45 1.44h.1l5-1.11-2.13 4-5.07 1.11 2.05-3.86a.34.34 0 0 0 .05-.14zm-7 1.59s0 0 .05 0l5.63-1.24-2.13 4-2.83.63-.73-3.29a.06.06 0 0 1 -.04-.1zm.56 6.6a1 1 0 1 1 -.2-2.05 1 1 0 0 1 .2 2.05zm.65 1 4.83-.47-2.33 3.35-2.2.21zm28.38 15.85-25.29 2.45a1.37 1.37 0 0 1 -1.49-1.23l-.71-7.15-.53-5.62 28-2.71 1.23 12.79a1.35 1.35 0 0 1 -1.21 1.47z"/><path d="m33.14 28.84a.55.55 0 0 0 .49-.6.53.53 0 0 0 -.59-.49l-14.12 1.37a.55.55 0 1 0 .1 1.09z"/><path d="m33.48 32.36a.55.55 0 0 0 .49-.6.53.53 0 0 0 -.59-.49l-14.12 1.36a.56.56 0 0 0 -.5.6.55.55 0 0 0 .6.49z"/><path d="m33.75 35.08-14.12 1.37a.55.55 0 1 0 .1 1.09l14.12-1.37a.55.55 0 0 0 .49-.6.53.53 0 0 0 -.59-.49z"/></g></svg>