<svg xmlns="http://www.w3.org/2000/svg" viewBox="0 0 541.07 380.18"><defs><style>.cls-1{fill:#70b62c;}.cls-2{fill:none;stroke:#164290;stroke-miterlimit:10;stroke-width:6px;}.cls-3{fill:#164290;}.cls-4{fill:#455ca6;}.cls-5{fill:#1e2647;}</style></defs><g id="Calque_1" data-name="Calque 1"><path class="cls-1" d="M322.9,418.38c17.92-15.15,35.91-31.42,51-46.3,6-5.94,11.55-11.64,16.45-17A37.63,37.63,0,1,1,406,368.63a667.12,667.12,0,0,1-73.13,64Z" transform="translate(-27.35 -179.64)"/><path class="cls-1" d="M41.33,527.51c-.6-17.22,13.63-43.44,36.2-70.61a9.93,9.93,0,1,0-5-5.87,10.21,10.21,0,0,0,.64,1.56c-26.1,31-41,58.7-40.76,78.33h0a14.4,14.4,0,0,0,13.66,24.7c.43-.14.84-.29,1.24-.46,15.73,7.7,42.84,5.65,76.58-4.66h0a23.15,23.15,0,0,0,41.31-15.33h0c28.29-12.14,59.21-28.52,90.86-48.49l-8-11.23q-6.78,4.64-13.51,9l0,0a583.94,583.94,0,0,1-72.38,40.2,22.92,22.92,0,0,0-2.77-3.86,23.15,23.15,0,0,0-39.89,20.55c-24.92,7.83-45.68,10.4-59.62,6.89a35.56,35.56,0,0,1-4.61-1.49,14.4,14.4,0,0,0-14-19.24h0" transform="translate(-27.35 -179.64)"/><circle class="cls-2" cx="264.5" cy="275.96" r="47.17"/></g><g id="Calque_2" data-name="Calque 2"><path class="cls-3" d="M539.09,311.26,509.46,258.6c-8.82,9.56-17.84,17.92-24.86,27.72-2.44,3.41.26,10.36.23,15.69A20.84,20.84,0,0,1,482,312.36c-7.64-18.43-19.82-30.72-39.7-34.54-2.64-.46-6.67,1.11.44-3.25,3-1.4,6.64-2.7,9-2.3,12.3,2.14,19.6-2.63,27.29-11.34,22.11-25.06,45.08-49.36,67.73-73.94,6.77-7.34,14.06-9.35,18.83-5.28S569,194,562.12,201.44s-14.17,14.79-20.63,22.7a15.16,15.16,0,0,0-3.13,10.4c2.6,20,5.4,40,9.08,59.89C548.93,302.51,544.64,306.07,539.09,311.26Z" transform="translate(-27.35 -179.64)"/><path class="cls-4" d="M512.75,213.54c-8.61,9.33-16.07,17.53-23.71,25.55a4.34,4.34,0,0,1-3.91.78c-15.14-6.74-30.2-13.67-45.61-20.7,3.86-7.59,8.47-10.8,16.81-9.9C474.51,211.22,492.81,212.1,512.75,213.54Z" transform="translate(-27.35 -179.64)"/></g><g id="Calque_3" data-name="Calque 3"><path class="cls-4" d="M138.62,387.29v38.79a2,2,0,0,1-3.94,0V372.29q0-7.29,9.59-7.29h7.47q9.58,0,9.59,7.29V380c0,4.82-3.2,7.25-9.59,7.25Zm0-3.72h13.23c3.68,0,5.5-1.19,5.5-3.48v-7.84c0-2.34-1.82-3.49-5.5-3.49h-7.73c-3.64,0-5.5,1.15-5.5,3.49Z" transform="translate(-27.35 -179.64)"/><path class="cls-4" d="M186,387.29v38.79a2,2,0,0,1-3.94,0V372.29q0-7.29,9.59-7.29h7.47q9.59,0,9.59,7.29V380c0,4.82-3.2,7.25-9.59,7.25Zm0-3.72h13.23c3.68,0,5.5-1.19,5.5-3.48v-7.84c0-2.34-1.82-3.49-5.5-3.49h-7.73c-3.64,0-5.5,1.15-5.5,3.49Z" transform="translate(-27.35 -179.64)"/><path class="cls-4" d="M233.31,377.66v2.8c0,2.15,1.71,3.25,5.17,3.25H244a1.79,1.79,0,1,1,0,3.58h-5.5c-6,0-9.07-2.25-9.07-6.79v-9c0-4.31,2.71-6.51,8.1-6.51h10.74c5.28,0,7.92,2,7.92,5.87V376a1.49,1.49,0,0,1-1.71,1.65Zm0-3.17H252c.22,0,.3-.13.3-.32v-2.38c0-2.11-1.41-3.17-4.31-3.17H237.74c-3,0-4.43,1.06-4.43,3.17Z" transform="translate(-27.35 -179.64)"/><path class="cls-4" d="M276.16,372.29q0-7.29,9.59-7.29h2.86a1.88,1.88,0,1,1,0,3.76h-3c-3.64,0-5.5,1.15-5.5,3.44v13.39a1.73,1.73,0,0,1-2,1.93,1.75,1.75,0,0,1-2-1.93Z" transform="translate(-27.35 -179.64)"/><path class="cls-5" d="M77.51,389.13c-11.93,0-17.92-4-17.92-12V349.06c0-1.71,1.1-2.57,3.3-2.57s3.31.86,3.31,2.57V377c0,4.77,3.85,7.16,11.62,7.16H91.15c7.77,0,11.57-2.39,11.57-7.16V366.28c0-1.71,1.16-2.57,3.36-2.57s3.3.86,3.3,2.57v10.86c0,8-6,12-17.92,12Z" transform="translate(-27.35 -179.64)"/><rect class="cls-5" x="32.24" y="146.78" width="6.62" height="29.79" rx="3.12"/><rect class="cls-5" x="52.75" y="324.31" width="6.62" height="29.79" rx="3.12" transform="translate(181.32 -148.51) rotate(35.74)"/><rect class="cls-5" x="66.43" y="324.31" width="6.62" height="29.79" rx="3.12" transform="translate(297.12 394.17) rotate(144.26)"/><path class="cls-5" d="M283.79,478.64c-13.9,0-20.88-4.64-20.88-14v-22.1q0-13.26,20.53-13.26h9.76c2.43,0,3.64,1,3.64,2.93s-1.21,2.92-3.64,2.92h-9.62c-8.63,0-13,2.57-13,7.56v21.74c0,5.56,4.42,8.34,13.54,8.34h15.4c9,0,13.54-2.78,13.54-8.34V451c0-2,1.29-3,3.85-3s3.85,1,3.85,3v13.68c0,9.34-7.05,14-20.88,14Z" transform="translate(-27.35 -179.64)"/><rect class="cls-5" x="305.08" y="438.95" width="6.62" height="24.8" rx="3.12" transform="translate(732.39 -36.68) rotate(90)"/><path class="cls-4" d="M348.53,460.52q0-8.1,8.85-8.1H360c1.17,0,1.75.71,1.75,2.09s-.58,2.09-1.75,2.09h-2.77c-3.36,0-5.08,1.27-5.08,3.82v14.89c0,1.43-.61,2.14-1.81,2.14s-1.82-.76-1.82-2.14Z" transform="translate(-27.35 -179.64)"/><path class="cls-4" d="M388.68,477.2c-5.93,0-8.88-2.7-8.88-8.06v-8.62c0-5.4,2.95-8.1,8.88-8.1h6.62c5.93,0,8.88,2.7,8.88,8.1v8.62c0,5.36-2.95,8.06-8.88,8.06Zm11.83-16.73c0-2.6-1.72-3.87-5.11-3.87h-6.86c-3.36,0-5.07,1.27-5.07,3.87v8.72c0,2.55,1.71,3.88,5.07,3.88h6.86c3.39,0,5.11-1.33,5.11-3.88Z" transform="translate(-27.35 -179.64)"/><path class="cls-4" d="M432.15,477.2c-5.89,0-8.84-2.7-8.84-8.06V454.3c0-1.37.58-2.14,1.81-2.14s1.82.77,1.82,2.14v14.89c0,2.55,1.71,3.88,5.07,3.88h6.52c3.39,0,5.07-1.33,5.07-3.88V454.3c0-1.37.62-2.14,1.82-2.14s1.85.77,1.85,2.14v14.84c0,5.36-3,8.06-8.84,8.06Z" transform="translate(-27.35 -179.64)"/><path class="cls-4" d="M487.18,460.52c0-2.65-1.71-3.92-5.11-3.92h-6.85c-3.36,0-5.08,1.27-5.08,3.92v14.79c0,1.43-.62,2.14-1.82,2.14s-1.81-.71-1.81-2.14V460.52q0-8.1,8.84-8.1H482q8.85,0,8.85,8.1v14.79c0,1.43-.62,2.14-1.82,2.14s-1.82-.71-1.82-2.14Z" transform="translate(-27.35 -179.64)"/><path class="cls-4" d="M518.93,477.2c-5.86,0-8.85-2.7-8.85-8.06v-8.62c0-5.4,3-8.1,8.85-8.1H531v-9.34c0-1.37.65-2.14,1.86-2.14s1.81.77,1.81,2.14v26.06c0,5.36-3,8.06-8.84,8.06Zm12.1-8V456.6h-12.2c-3.36,0-5.08,1.27-5.08,3.87v8.72c0,2.55,1.72,3.88,5.08,3.88H526C529.32,473.07,531,471.74,531,469.19Z" transform="translate(-27.35 -179.64)"/></g></svg>